SplineFontDB: 3.0
FontName: Untitled1
FullName: Untitled1
FamilyName: Untitled1
Weight: Regular
Copyright: Copyright (c) 2018, hughs
UComments: "2018-1-13: Created with FontForge (http://fontforge.org)"
Version: 001.000
ItalicAngle: 0
UnderlinePosition: -100
UnderlineWidth: 50
Ascent: 800
Descent: 200
InvalidEm: 0
LayerCount: 2
Layer: 0 0 "Back" 1
Layer: 1 0 "Fore" 0
XUID: [1021 337 1418023252 32656]
StyleMap: 0x0000
FSType: 0
OS2Version: 0
OS2_WeightWidthSlopeOnly: 0
OS2_UseTypoMetrics: 1
CreationTime: 1515866660
ModificationTime: 1516926281
OS2TypoAscent: 0
OS2TypoAOffset: 1
OS2TypoDescent: 0
OS2TypoDOffset: 1
OS2TypoLinegap: 90
OS2WinAscent: 0
OS2WinAOffset: 1
OS2WinDescent: 0
OS2WinDOffset: 1
HheadAscent: 0
HheadAOffset: 1
HheadDescent: 0
HheadDOffset: 1
OS2Vendor: 'PfEd'
DEI: 91125
Encoding: ISO8859-1
UnicodeInterp: none
NameList: AGL For New Fonts
DisplaySize: -48
AntiAlias: 1
FitToEm: 0
WinInfo: 60 15 11
Grid
-1000 882 m 0
 2000 882 l 1024
  Named: "Ascenders"
-1000 616 m 0
 2000 616 l 1024
  Named: "x-height"
-1000 1000 m 0
 2000 1000 l 1024
  Named: "top"
EndSplineSet
BeginChars: 256 20

StartChar: n
Encoding: 110 110 0
Width: 652
VWidth: 0
Flags: WO
HStem: 0 21G<56 164 477 585> 535 89<326 450.409>
VStem: 56 108<0 449.097 489 616> 477 108<0 510.534>
LayerCount: 2
Fore
SplineSet
164 489 m 1
 205 559 338 624 433 624 c 0
 548 624 585 542 585 497 c 2
 585 0 l 1
 477 0 l 1
 477 455 l 2
 477 482 464 535 385 535 c 0
 259 535 192 464 164 424 c 1
 164 0 l 1
 56 0 l 1
 56 619 l 1
 158 616 l 1
 164 489 l 1
EndSplineSet
Validated: 8388609
EndChar

StartChar: h
Encoding: 104 104 1
Width: 660
VWidth: 0
Flags: WO
HStem: 0 21G<60 168 481 589> 535 81<303.036 445.387> 865 20G<60 162>
VStem: 60 108<0 458.019 487 882> 481 108<0 499.747>
LayerCount: 2
Fore
SplineSet
162 882 m 1
 168 750 l 1
 168 487 l 1
 204 548 307 616 399 616 c 0
 528 616 589 521 589 452 c 2
 589 0 l 1
 481 0 l 1
 481 455 l 2
 481 482 453 535 374 535 c 0
 252 535 193 469 168 429 c 1
 168 0 l 1
 60 0 l 1
 60 885 l 1
 162 882 l 1
EndSplineSet
Validated: 8388609
EndChar

StartChar: m
Encoding: 109 109 2
Width: 1068
VWidth: 0
Flags: W
HStem: 0 21G<66.2002 174 487.391 595.19 907.391 1015.19> 535.149 88.5498<335.899 460.271 754.447 880.271>
VStem: 66.2002 107.8<0 451.609 488.508 616> 487.391 107.8<0 451.002 490.882 509.83> 907.391 107.8<0 509.83>
LayerCount: 2
Fore
SplineSet
594 483.559570312 m 1025,0,-1
174 424.48958488 m 1,1,-1
 174 0 l 1,2,-1
 66.2001953125 0 l 1,3,-1
 66.2001953125 619.080078125 l 1,4,-1
 167.83984375 616 l 1,5,-1
 173.769833372 488.508043343 l 1,6,-1
 215.148955514 559.427556518 347.685868347 623.69921875 442.73046875 623.69921875 c 0,9,-1
 558.23046875 623.69921875 595.190429688 542.079101562 595.190429688 496.649414062 c 2,12,-1
 595.190429688 490.882053225 l 1,13,-1
 638.105233972 560.855405649 768.74754592 623.69921875 862.73046875 623.69921875 c 0,16,-1
 978.23046875 623.69921875 1015.19042969 542.079101562 1015.19042969 496.649414062 c 2,19,-1
 1015.19042969 0 l 1,20,-1
 907.390625 0 l 1,21,-1
 907.390625 455.069335938 l 2,22,-1
 907.344726562 482.103515625 893.534179688 535.149414062 814.990234375 535.149414062 c 0,25,-1
 690.821211621 535.149414062 623.585589827 465.954837933 595.190429688 426.172293211 c 1,28,-1
 595.190429688 0 l 1,29,-1
 487.390625 0 l 1,30,-1
 487.390625 455.069335938 l 2,31,-1
 487.344726562 482.103515625 473.534179688 535.149414062 394.990234375 535.149414062 c 0,34,-1
 269.051582597 535.149414062 201.680699786 463.968492493 174 424.48958488 c 1,1,-1
EndSplineSet
Validated: 8912897
EndChar

StartChar: i
Encoding: 105 105 3
Width: 310
VWidth: 0
Flags: WO
HStem: -1.63134 73.6313<212.705 267.068> 704.56 95.4404<70.2002 171.84>
VStem: 70 108<109.076 616 704.56 800>
LayerCount: 2
Fore
SplineSet
171.83984375 800 m 1
 178 704.559570312 l 1
 70.2001953125 704.559570312 l 1
 70.2001953125 803.080078125 l 1
 171.83984375 800 l 1
70 195 m 2
 70 616 l 1
 177.799804688 616.080078125 l 1
 177.799804688 195 l 1
 178 195 l 1
 178 170 l 0
 178 92 242 72 279 72 c 1
 278 43 267.068359375 -1.62890625 267.068359375 -1.62890625 c 1
 266.644828391 -1.63052541511 266.221241595 -1.63133793109 265.797607538 -1.63133793109 c 0
 169.129258995 -1.63133793109 70 40.676299702 70 195 c 2
EndSplineSet
Validated: 524289
EndChar

StartChar: o
Encoding: 111 111 4
Width: 681
VWidth: 0
Flags: W
HStem: -8 98.4072<260.553 423.537> 550.872 85.1279<261.638 426.6>
VStem: 52 100.8<213.943 432.1> 533.28 98.7197<216.063 434.525>
LayerCount: 2
Fore
SplineSet
152.799804688 325.512695312 m 0
 152.799804688 189.9921875 231.51953125 90.4072265625 343.040039062 90.4072265625 c 0
 441.440429688 90.4072265625 533.280273438 176.872070312 533.280273438 325.512695312 c 0
 533.280273438 459.032226562 454.560546875 550.872070312 343.040039062 550.872070312 c 0
 238.080078125 550.872070312 152.799804688 459.032226562 152.799804688 325.512695312 c 0
52 326 m 0
 52 496 182 636 342 636 c 0
 512 636 632 496 632 326 c 0
 632 136 492 -8 342 -8 c 0
 172 -8 52 156 52 326 c 0
EndSplineSet
Validated: 1
EndChar

StartChar: l
Encoding: 108 108 5
Width: 228
VWidth: 0
Flags: W
HStem: 0 21G<62.2002 170.004> 865.08 20G<62.3567 164>
VStem: 62.2002 107.8<0 882>
LayerCount: 2
Fore
SplineSet
164 882 m 5
 170.16015625 749.559570312 l 5
 170 0 l 5
 62.2001953125 0 l 5
 62.3603515625 885.080078125 l 5
 164 882 l 5
EndSplineSet
Validated: 1
EndChar

StartChar: d
Encoding: 100 100 6
Width: 631
VWidth: 0
Flags: W
HStem: -8 91<224.563 414.482> 539 77.0146<228.103 350.516>
VStem: 44 96<182.348 433.884> 465.903 107.827<2.30078 53.1077 115.434 479.424 498.824 884.301>
LayerCount: 2
Fore
SplineSet
471.930664062 884.30078125 m 5
 573.5703125 887.380859375 l 5
 573.73046875 2.30078125 l 5
 465.930664062 2.30078125 l 5
 465.919808296 53.107684997 l 5
 426.831922923 13.2043026225 380.207036319 -8 334 -8 c 4
 180.91796875 -8 44 70.982421875 44 326 c 4
 44 458 116 616 246 616.014648438 c 4
 246.991433897 616.014648438 247.98095518 616.009867616 248.968564134 616.000305973 c 6
 249 616 l 6
 339.973786136 616 432.286226485 563.488783551 465.824573393 498.823870509 c 5
 465.770507812 751.860351562 l 5
 471.930664062 884.30078125 l 5
465.83257801 461.360847177 m 5
 438.884507211 486.569701849 373.304396389 539 294 539 c 4
 204.977539062 539 140 442.487304688 140 321 c 4
 140 106.916015625 234.49609375 83 334 83 c 4
 378.013526657 83 425.541231144 99.5797811839 465.903424346 129.787468274 c 5
 465.83257801 461.360847177 l 5
EndSplineSet
Validated: 524289
EndChar

StartChar: p
Encoding: 112 112 7
Width: 635
VWidth: 0
Flags: W
HStem: -198.521 21G<56.2019 157.84> 2.98535 77.0146<279.389 401.897> 536 91<215.5 405.437>
VStem: 56.2002 107.822<-195.44 120.479 139.717 503.545 565.876 616.699> 490 96<185.116 436.652>
LayerCount: 2
Fore
SplineSet
157.83984375 -195.440429688 m 5
 56.2001953125 -198.520507812 l 5
 56.26953125 616.69921875 l 5
 164.069335938 616.69921875 l 5
 164.069335938 599.758125379 164.064151469 582.817032007 164.064151469 565.875938636 c 5
 203.155321303 605.789895849 249.786642956 627 296 627 c 4
 449.08203125 627 586 548.017578125 586 293 c 4
 586 161 514 3 384 2.9853515625 c 4
 383.008566105 2.98535156271 382.019044827 2.99013238402 381.031435877 2.99969402664 c 6
 381 3 l 6
 289.884131287 3 197.425423685 55.6753682449 164.018716665 120.479198655 c 5
 164 -63 l 5
 157.83984375 -195.440429688 l 5
296 536 m 4
 251.971842931 536 204.427171367 519.409194508 164.056327981 489.182403453 c 5
 164.022521178 157.774787861 l 5
 190.87984519 132.618899547 256.553095425 80 336 80 c 4
 425.022460938 80 490 176.512695312 490 298 c 4
 490 512.083984375 395.50390625 536 296 536 c 4
EndSplineSet
Validated: 524289
EndChar

StartChar: q
Encoding: 113 113 8
Width: 638
VWidth: 0
Flags: W
HStem: -198.521 21G<478.36 579.998> 2.98535 77.0146<234.303 356.812> 536 91<230.763 420.7>
VStem: 50.2002 96<185.116 436.652> 472.178 107.822<-195.44 120.479 139.717 503.545 565.876 616.699>
LayerCount: 2
Fore
SplineSet
478.360351562 -195.440429688 m 5
 472.200195312 -63 l 5
 472.181478648 120.479198653 l 5
 438.774771627 55.6753682443 346.316064024 3 255.200195312 3 c 6
 255.168759435 2.99969402664 l 6
 254.181150486 2.99013238402 253.191629208 2.98535156271 252.200195312 2.9853515625 c 4
 122.200195312 3 50.2001953125 161 50.2001953125 293 c 4
 50.2001953125 548.017578125 187.118164062 627 340.200195312 627 c 4
 386.413552356 627 433.04487401 605.789895848 472.136043844 565.875938635 c 5
 472.136043844 582.817032007 472.130859375 599.758125378 472.130859375 616.69921875 c 5
 579.930664062 616.69921875 l 5
 580 -198.520507812 l 5
 478.360351562 -195.440429688 l 5
472.177674134 157.774787861 m 5
 472.143867332 489.182403452 l 5
 431.773023945 519.409194507 384.228352382 536 340.200195312 536 c 4
 240.696289062 536 146.200195312 512.083984375 146.200195312 298 c 4
 146.200195312 176.512695312 211.177734375 80 300.200195312 80 c 4
 379.647099887 80 445.320350122 132.618899546 472.177674134 157.774787861 c 5
EndSplineSet
Validated: 524289
EndChar

StartChar: b
Encoding: 98 98 9
Width: 635
VWidth: 0
Flags: WO
HStem: -10 91<218.5 408.437> 0.300781 21G<59.268 167.069> 537 77.0146<282.159 406.197> 865.521 20G<59.2018 160.84>
VStem: 59.2695 107.788<0.300781 51.1236 113.455 477.287 496.798 882.44> 493 96<180.348 431.884>
LayerCount: 2
Fore
SplineSet
160.83984375 882.440429688 m 1x7c
 167 750 l 1
 167.023417405 496.797825017 l 1
 200.819141888 562.290385011 295.017352267 614.014648438 387 614.014648438 c 0
 517 614 589 456 589 324 c 0
 589 68.982421875 452.08203125 -10 299 -10 c 0xbc
 252.786833732 -10 206.155706306 11.2099290345 167.064635592 51.1235670518 c 1
 167.064635592 34.1826384512 167.069335938 17.2417098506 167.069335938 0.30078125 c 1
 59.26953125 0.30078125 l 1
 59.2001953125 885.520507812 l 1
 160.83984375 882.440429688 l 1x7c
167.02689193 459.229305921 m 1
 167.057542628 127.816687112 l 1
 207.428125024 97.5904727137 254.972284492 81 299 81 c 0
 398.50390625 81 493 104.916015625 493 319 c 0
 493 440.487304688 428.022460938 537 339 537 c 0
 259.557404809 537 193.886969767 484.386808639 167.02689193 459.229305921 c 1
EndSplineSet
Validated: 524289
EndChar

StartChar: c
Encoding: 99 99 10
Width: 560
VWidth: 0
Flags: W
HStem: -5 97<243.816 437.654> 531 91<252.601 432.97>
VStem: 49 102<193.781 410.734>
LayerCount: 2
Fore
SplineSet
512 470 m 1
 471.594726562 500.302734375 408.064256222 531 338 531 c 7
 227.77749776 531 151 444 151 288 c 3
 151 176.927951311 231.994140625 92 312 92 c 3
 488.002929688 92 531 143 531 143 c 1
 531 29.732421875 409.84765625 -5 322 -5 c 3
 198.520507812 -5 49 89.8443378049 49 274 c 3
 49 524.001999992 193.875054206 622 338 622 c 7
 404.272166103 622 473.439453125 586.408203125 512.708984375 545.913085938 c 1
 512 470 l 1
512.708984375 545.913085938 m 1025
512 470 m 1025
EndSplineSet
Validated: 1
EndChar

StartChar: r
Encoding: 114 114 11
Width: 574
VWidth: 0
Flags: W
HStem: 0 21G<56.2002 164> 535.149 85.8506<306.967 451.67>
VStem: 56.2002 107.8<0 459.807 490.03 616>
LayerCount: 2
Fore
SplineSet
464.036132812 500.592773438 m 1
 451.448242188 519.344726562 427.862993223 535.149414062 384.990234375 535.149414062 c 0
 249.998620106 535.149414062 189.018053665 471.172631337 164 430.885134753 c 1
 164 0 l 1
 56.2001953125 0 l 1
 56.2001953125 619.080078125 l 1
 157.83984375 616 l 1
 163.699029847 490.030285454 l 1
 202.78059908 559.620817502 322.956308812 621 405 621 c 0
 488.024092889 621 532 589 558 541 c 1
 464.036132812 500.592773438 l 1
EndSplineSet
Validated: 8912897
EndChar

StartChar: a
Encoding: 97 97 12
Width: 616
VWidth: 0
Flags: W
HStem: -7.01465 77.0146<204.832 329.746> -1 21G<456.36 557.998> 536 91<238.672 398.703>
VStem: 28.2002 96<173.551 409.665> 450.197 107.803<2.08008 120.986 136.31 503.542 565.874 616.699>
LayerCount: 2
Fore
SplineSet
450.138167931 565.873769815 m 1xb8
 450.138167931 582.815586127 450.130859375 599.757402438 450.130859375 616.69921875 c 1
 557.930664062 616.69921875 l 1
 558 -1 l 1x78
 456.360351562 2.080078125 l 1
 450.82971157 120.986207659 l 1
 417.984920937 53.232639893 324.912322446 -7 233.200195312 -7 c 2
 233.169995382 -7.00030868968 l 2
 232.181952018 -7.01083569229 231.190870172 -7.06284010215 230.200195312 -7.0146484375 c 0
 86 0 28.2001953125 151 28.2001953125 293 c 0
 28.2001953125 483 117 627 318.200195312 627 c 0
 364.414389387 627 411.046563212 605.789127513 450.138167931 565.873769815 c 1xb8
450.197055728 156.353929056 m 1
 450.149196507 489.178413238 l 1
 409.777208092 519.407734412 362.230289717 536 318.200195312 536 c 0
 218.696289062 536 124.200195312 448 124.200195312 298 c 0
 124.200195312 166.512695312 178 70 278.200195312 70 c 0xb8
 357.666217494 70 423.351955727 128.437637192 450.197055728 156.353929056 c 1
EndSplineSet
Validated: 524289
EndChar

StartChar: j
Encoding: 106 106 13
Width: 243
VWidth: 0
Flags: W
HStem: -201.629 4.62891<-9.34353 -3.99523> 704.56 99.4404<63.2002 164.84>
VStem: 63.2002 107.8<-94.9192 616 704.56 804>
LayerCount: 2
Fore
SplineSet
164.83984375 804 m 1
 171 704.559570312 l 1
 63.2001953125 704.559570312 l 1
 63.2001953125 807.080078125 l 1
 164.83984375 804 l 1
171 0 m 2
 171 -107 99.748046875 -201.62890625 -9.068359375 -201.62890625 c 0
 -15 -201.62890625 -17 -197 -15 -197 c 0
 7.3603515625 -197 63 -181.028320312 63 -44 c 0
 63 0.2939453125 63 -23 63.2001953125 0 c 2
 63.2001953125 616.080078125 l 1
 171 616 l 1
 171 0 l 2
EndSplineSet
Validated: 524289
EndChar

StartChar: t
Encoding: 116 116 14
Width: 398
VWidth: 0
Flags: W
HStem: -1.6324 73.6324<281.807 333.068> 527.753 88.247<36 136.197 244.142 348>
VStem: 136 108<109.354 527.411 616 801>
LayerCount: 2
Fore
SplineSet
238 801 m 1
 244.16015625 668.559570312 l 1
 244.142380781 616 l 1
 348 616 l 1
 348 523 l 1
 244.11253595 527.753021231 l 1
 244 195 l 1
 244 195 244 171.4140625 244 170 c 0
 244 92 308 72 345 72 c 1
 344 43 333.068359375 -1.62890625 333.068359375 -1.62890625 c 1
 332.462210652 -1.63122356538 331.855947612 -1.63239557057 331.249595318 -1.63239557057 c 0
 234.754988418 -1.63239557057 136 28.0490852639 136 195 c 2
 136.19666525 527.411173942 l 1
 36 523 l 1
 36 616 l 1
 136.249077277 616 l 1
 136.360351562 804.080078125 l 1
 238 801 l 1
EndSplineSet
Validated: 524289
EndChar

StartChar: f
Encoding: 102 102 15
Width: 385
VWidth: 0
Flags: W
HStem: 0.919922 21G<134 241.8> 529 86<31 134 241.8 343> 800 80.6325<272.24 348.068>
VStem: 134 107.8<1 533.535 615.094 769.593>
LayerCount: 2
Fore
SplineSet
134 685 m 2
 134 851.915064274 249.493719025 880.63251604 346.185314448 880.63251604 c 0
 346.813802755 880.63251604 347.441496691 880.631302755 348.068359375 880.62890625 c 1
 348.068359375 880.62890625 353 829 354 800 c 1
 317 800 242 793 242 710 c 0
 242 685 l 1
 241.799804688 685 l 1
 241.799804688 615.050543906 l 1
 278.223931928 615.025861819 312.67711523 615 343 615 c 1
 343 529 l 1
 241.799804688 533.630074295 l 1
 241.799804688 0.919921875 l 1
 134 1 l 1
 134 533.534591195 l 1
 31 529 l 1
 31 615 l 1
 64.1563167138 615.067871817 99.0405182968 615.092467106 134 615.0944814 c 1
 134 685 l 2
EndSplineSet
Validated: 524289
EndChar

StartChar: v
Encoding: 118 118 16
Width: 535
VWidth: 0
Flags: W
HStem: 599.08 20G<42.7249 139 400 495.339>
LayerCount: 2
Fore
SplineSet
400 616 m 1
 502.799804688 619.080078125 l 1
 270 -5 l 1
 35.2001953125 619.080078125 l 1
 139 616 l 1
 270 236 l 1
 400 616 l 1
EndSplineSet
Validated: 524289
EndChar

StartChar: s
Encoding: 115 115 17
Width: 601
VWidth: 0
Flags: W
HStem: -4 101<119.189 390.252> 283 84<175.751 406.886> 522 97<187.464 422.666>
VStem: 48 97<394.851 486.351> 456 109<144.39 242.904>
LayerCount: 2
Fore
SplineSet
505 562 m 1
 467 478 l 1
 467 478 415.059570312 522 281 522 c 3
 196.786132812 522 145 487.08984375 145 437 c 3
 145 374 221.944335938 367 366 367 c 3
 486.78515625 367 565 293 565 194 c 3
 565 95 481 -4 283 -4 c 3
 128.12890625 -4 40 36 40 36 c 1
 64 135 l 1
 64 135 166.779296875 97 278 97 c 3
 350.16015625 97 456 125.583007812 456 188 c 3
 456 278 356 283 213 283 c 3
 107.95703125 283 48 362.939453125 48 437 c 3
 48 470.734375 81 619 288 619 c 3
 441 619 505 562 505 562 c 1
EndSplineSet
Validated: 524289
EndChar

StartChar: u
Encoding: 117 117 18
Width: 652
VWidth: 0
Flags: W
HStem: 0 89<196.346 321> 604 20G<62 169 483 590>
VStem: 62 107<114.296 624> 483 107<8 135 174.366 624>
LayerCount: 2
Fore
SplineSet
483 135 m 1
 442 64 309 0 214 0 c 0
 98 0 62 82 62 127 c 2
 62 624 l 1
 169 624 l 1
 169 169 l 2
 169 142 183 89 262 89 c 0
 388 89 455 160 483 199 c 1
 483 624 l 1
 590 624 l 1
 590 5 l 1
 489 8 l 1
 483 135 l 1
EndSplineSet
Validated: 8388609
EndChar

StartChar: w
Encoding: 119 119 19
Width: 883
VWidth: 0
Flags: W
HStem: 599.08 20G<51.6651 148 749 844.399>
LayerCount: 2
Fore
SplineSet
410.573242188 611.046875 m 1025,0,-1
410.573242188 611.046875 m 1,1,-1
 486.177734375 611.053710938 l 1,2,-1
 619 222 l 1,3,-1
 749 616 l 1,4,-1
 851.799804688 619.080078125 l 1,5,-1
 619 -10 l 1,6,-1
 445.834960938 474.258789062 l 1,7,-1
 279 -10 l 1,8,-1
 44.2001953125 619.080078125 l 1,9,-1
 148 616 l 1,10,-1
 279 222 l 1,11,-1
 410.573242188 611.046875 l 1,1,-1
EndSplineSet
Validated: 524289
EndChar
